<svg xmlns="http://www.w3.org/2000/svg" viewBox="0 0 164.14 72.84"><defs><style>.cls-1{fill:#fff;}</style></defs><title>Artboard 27</title><g id="asset"><path class="cls-1" d="M163.27,6l0-.38a1.9,1.9,0,0,0,0-.25c0-.12,0-.23-.05-.35a2.86,2.86,0,0,0-.07-.28c0-.09,0-.19-.07-.29s-.07-.22-.11-.33a2.18,2.18,0,0,0-.09-.23,2.17,2.17,0,0,0-.15-.35.49.49,0,0,1,0-.11l-.07-.11L162.38,3l-.15-.23a2.33,2.33,0,0,0-.17-.26l-.21-.26c0-.07-.11-.13-.16-.19l-.24-.26-.18-.17L161,1.42l-.2-.15-.27-.2-.25-.15A1.28,1.28,0,0,0,160,.77a2.1,2.1,0,0,0-.3-.15L159.5.51l-.34-.13L158.94.3l-.35-.1-.24-.06L158,.08l-.3,0-.28,0-.37,0h-.24l-.38,0-.26,0c-.11,0-.22,0-.33.06l-.27.05-.34.09-.3.1-.23.09-.36.15-.1.05-45.9,22.77a10.42,10.42,0,0,0-10-7.06l-32.45.49a10.44,10.44,0,0,0-9.8,7.33L9.54,2.81a6.23,6.23,0,0,0-8.1,2.71A6.21,6.21,0,0,0,0,9.59L.83,65.51a6.33,6.33,0,0,0,1.31,3.72.84.84,0,0,1,.06.14,6.22,6.22,0,0,0,8.37,2.81L56.1,49.62a10.43,10.43,0,0,0,10.42,8.69l32.38-.49a10.41,10.41,0,0,0,10.17-9L155.28,70a6.34,6.34,0,0,0,2.7.57,6.24,6.24,0,0,0,6-7.44,6.53,6.53,0,0,0,.09-1.1l-.84-55.92h0Z"/></g></svg>