<svg id="desktop" xmlns="http://www.w3.org/2000/svg" viewBox="0 0 71 445"><defs><style>.cls-1{fill:#d8b800;}</style></defs><title>Artboard 3</title><g id="header"><g id="oscar"><path class="cls-1" d="M3.94,387.48H5.81V445h7.34V387.48H71v-9.25H17.74V364.88H71v-8.22H51.29A16,16,0,0,0,52,355c1.93-5.05,1.25-21.29.8-26.32-.36-4-1.75-8.92-3.09-13.68a96,96,0,0,1-2.7-11.19,107.3,107.3,0,0,1,.3-27.58,82.22,82.22,0,0,0-.52-27.7c-.48-2.85-1.1-5.64-1.75-8.6A145.6,145.6,0,0,1,41.53,218c-.82-10.4,0-22.53.87-34.26.27-3.76.53-7.52.75-11.24.69-11.94-1.82-17.69-8.4-19.22a1.12,1.12,0,0,0-.32-.06c-.24-.12-2.41-1.34-4.43-7.65-1.61-5.05-3.16-13.54-4.14-22.69-.66-6.2-1.71-11.45-2.63-16.08q-.35-1.76-.66-3.39c-.8-4.24-.81-8.33,1.52-16.67,1.24-4.41,4.36-6.36,11.31-10.34,2.52-1.45,5.38-3.08,8.53-5.15l.43-.28C55.49,63.67,57.2,62.54,57.2,53.39V53A67.45,67.45,0,0,0,55.73,42c-1.26-6.91-2.82-15.51-2-23.73,1-9.51,10.88-9.46,12-9.4h.33A15.89,15.89,0,0,1,71,9.54V.61A21.27,21.27,0,0,0,65.46,0C59.13-.22,47,3.08,45.57,17.25c-1,9.58.73,18.92,2.07,26.42A64,64,0,0,1,48.94,53v.37c0,3-.06,3.42-.37,3.82-.93,1.19-3.76,3.07-8.44,6.18l-.43.28c-2.91,1.93-5.63,3.51-8,4.9C24.52,72.73,18.86,76,16.62,84.13c-2.45,8.85-2.91,14.56-1.69,21.06.21,1.12.43,2.27.67,3.47.87,4.44,1.85,9.47,2.46,15.23.39,3.66,1.85,16.24,4.48,24.59s6.12,11.52,8.6,12.76a8.38,8.38,0,0,0,1.91.64c.9.21,2.58.61,2,10-.21,3.68-.47,7.4-.73,11.11-.85,12.09-1.73,24.59-.86,35.71A156.72,156.72,0,0,0,37.2,242c.62,2.83,1.2,5.51,1.63,8.1a74.14,74.14,0,0,1,.49,24.67A117.72,117.72,0,0,0,39,305.13a100.51,100.51,0,0,0,2.93,12.48,78,78,0,0,1,2.73,11.93c.68,7.66.56,19.82-.21,22a23,23,0,0,1-3.25,5.07H13.42a4.19,4.19,0,0,0-3.94,4.41v17.16H3.94S0,380.39,0,382.82A4.61,4.61,0,0,0,3.94,387.48Z"/></g></g></svg>