<svg xmlns="http://www.w3.org/2000/svg" viewBox="0 0 545 272.61"><defs><style>.cls-1{opacity:0.43;}.cls-2{fill:#ffd2ff;}.cls-3{fill:#202020;}.cls-4{font-size:100px;font-family:AmaticSC-Regular, Amatic SC;}</style></defs><title>Artboard 1</title><g id="Layer_2" data-name="Layer 2"><g class="cls-1"><polygon class="cls-2" points="122.4 59.42 168.72 266.6 439.96 222.63 430.87 9.42 364.74 140.22 281.96 33.56 241.51 165.65 122.4 59.42"/><path class="cls-3" d="M256.27,125.37c.19-.53.28-.65.35-.67l.35-1.33Z"/><path class="cls-3" d="M172.59,114.36l-.17-.15a2.09,2.09,0,0,1,.34.54C173,114.82,173,114.82,172.59,114.36Z"/><path class="cls-3" d="M197.59,134.92c.39.42.77.83,1.1,1.22A6.63,6.63,0,0,0,197.59,134.92Z"/><path class="cls-3" d="M250.78,142.16l1.54-4.12A17.23,17.23,0,0,0,250.78,142.16Z"/><path class="cls-3" d="M194.49,131.84c.8.83,2.13,2.11,3.09,3.08C196.68,133.94,195.63,132.91,194.49,131.84Z"/><path class="cls-3" d="M127,73.86c.61.63,1.29,1.32,2,2.05.08,0,.22.11.24.05Z"/><path class="cls-3" d="M118.17,68.05c.7,2.79.94,3.23,1,2.79A22.9,22.9,0,0,1,118.17,68.05Z"/><path class="cls-3" d="M133.55,136.92c-.15-.51-.3-1-.45-1.45C133.38,136.52,133.6,137.23,133.55,136.92Z"/><path class="cls-3" d="M127.36,96.74a1.24,1.24,0,0,0,.08-.56C127.33,95.94,127.29,96.06,127.36,96.74Z"/><path class="cls-3" d="M432.7,178.39l-.1,1.71A8.47,8.47,0,0,0,432.7,178.39Z"/><path class="cls-3" d="M427.89,85.56l0-.83Z"/><path class="cls-3" d="M427.77,82.8l.08,1.93C427.82,83.9,427.81,83.16,427.77,82.8Z"/><path class="cls-3" d="M125.49,71.13c-1.89-1.26-6.14-4.91-6.5-4.7L127,73.86C124.33,71,123.14,69.4,125.49,71.13Z"/><path class="cls-3" d="M281.63,256.82c3.5-.6,5.26-.95,6.12-1.17l-6.3,1.18Z"/><path class="cls-3" d="M361.44,240.25l-.31.09.49-.1Z"/><path class="cls-3" d="M275.42,258.23a8,8,0,0,0-1.07.38C275.68,258.38,275.74,258.28,275.42,258.23Z"/><path class="cls-3" d="M260.12,107.48l.38-1.52C260.31,106.63,260.2,107.09,260.12,107.48Z"/><path class="cls-3" d="M356,240.56l5.43-.31,2.35-.68C364.71,239,358.57,240,356,240.56Z"/><path class="cls-3" d="M275.42,258.23c1.36-.43,3.49-.9,6-1.39l-3,.17C271.4,258.19,274.66,258.09,275.42,258.23Z"/><path class="cls-3" d="M118.45,61.67c.42,3.34-2.63-7.92-1.24-1.09l2.2,6.57c-.58-1-.11,2.87-.24,3.69,1.25,2.55-.85-8.86,1.81-1.14.81,1.75,2.07,7.79,2.66,10.85-1.39-6.82.65,0,1.49,2.71.66,4.24,2.29,10.89,2.3,12.92a46.19,46.19,0,0,1,1.53,6.06l-.17.26c1.31,4.95-.17-1.74.35-.52.88,3.59,1.68,9.35,3,15.23-1.35-5.88-2.75-10.71-3.93-14.87,2,10.82-1.54-1.64-2.64-3.91,2.2,8.57,3.34,11.78,5.29,18.74,1.46,8.67-1.76-.31-2.31-2.46,2.07,7.77,4.61,15.81,5.8,20-2.16-5.64-2.21-4.58-4.08-9.68.91,6.4,1.8,7.54,2.8,10.47a33.64,33.64,0,0,1-1.11-5.1c1.6,7.48,2.64,5.91,4.08,9.67.88,5.6,3.06,16.16,2.13,15.63l.81-.26c1.65,6.43.33,3.46.28,4.52,1.11,2.29,1.25-.91,3.91,9.95-1.71-1.38,2.06,9.75.77,9.72,1.22,5.08,2.42,7.24,3.46,12.58.62,6-3.44-7.66-3.95-10.87-1.68-7.35.78.84.1-2.1l-1.94-7c.62,4,2.05,11.75,1.28,10.93,1.86,7.11-.71-5.9,1.36,1.89l.75,4.8c2.07,7.77.56-1.86,3,8.33-2.12-6.71,2.48,11.09,1.46,10.67,1.2.16,4.25,18.29,5.62,20.21l-1-5.47-.22,1.31c-1.35-5.88-2.74-10.71-3.92-16.84,1.48,4.69.56-1.85,2.17,3.64,3,10.31,0,2.92.37,4.39l2.46,8.18-.79-5.75c1.65,6.43,3.67,15.26,5.61,24.22,2.31,13.36-1-1.48.52,8.12.59,2.09.9,2.86,1.22,3.86.16.5.32,1.06.52,1.87l.33,1.43.5,2.32c-.23-1.38-.32-1.92-.49-2.7s-.34-1.41-.52-2.07c-.36-1.31-.74-2.48-1-3.61,0-1.53.71,1.14,1.46,4.1.63,2.43,1.87,7.66,2,6.91.51,3.54.15,3.23-.75.53l1.84,7.72c3-.51,5.84-1,8.55-1.4l3.86-.58,2.53-.33a46.5,46.5,0,0,1,7.49-.48l4.27-1.58c17.55-2.54-11.84,2.73,3,.88a141.45,141.45,0,0,0,14.66-2.69l-5.27.83c3.95-1.12,3.59-1.41,10-2.76,4.59-.66,2.23.31,7.68-1.06,14-1.78,4.49.63,2.39,1.78,10.25-1.2-4.88,2.48,1.94,1l-1.89.11,10.36-2.85c-10.06.65-3.77,1.52-7.85,1.2l-5.91.88c1.77-.79,15.45-2.65,16.6-3.41.16.27-1.2,1.17-7.33,2.2l3.85.47c3.57-.47,5.8-1.56,7.83-1.4,5.41-.17-7.56,2.34,5.48.52,13.94-2,12.88-3.2,22.35-4.55a44.61,44.61,0,0,0-6.3.77c3-.86-2.43-.28,2.69-1.39,3.05.24,13-1.42,20.6-2.67-1.92.71,3,.3.67.92a74.68,74.68,0,0,0,9-2c-15.56,2,14.89-3,2.75-1.8,12.06-1.92,14.49-1.64,22-2.48-.46.3-13.81,2.7-3.07,1.27,12.16-2.75-2.37-.69,7-3.14l-7.77,1c-1.12-.76,13.35-2.4,15.3-2.92,4.81-.54-6.6,1.33-1.84,1.2,7.15-1,10.64-2.11,15.24-2.51-4.33,1.34-1.54.64-6.49,2,16.7-2.72-.74.86,12.08-.82,4-.78,1.37-.9,7.92-1.82-3.92-.05-3.47-.35-14,1.34,3.53-1.57,13.92-2,21.19-3.8-5.91.88-1.88.11-8.25,1.29-1-.67-3.38-.41,2.32-2.12-6.82,1.33-9.65,2.69-19.51,4-2.84-.39,11.94-2.59,11.88-3.69,4.8-1.34,16.76-2.81,22.24-3.29,9.42-2.21,21.11-4.13,28.25-6.27,3.41-.39,9.26-1.49,15.87-2.72l10.28-1.87,5.91-1,6.27-1,0-.9a32.94,32.94,0,0,0,.09-4l-.1-5.73c0-2.78,0-4.3.43-.27-.21-1.14-.77-12.05-1.08-9.18.21,1.12.13,2.36.26,4.71l-.69-2.08c0-6.35-1.09-13.42-1-19.52.4-2,.8,11.42,1.19,7.3-1.15-5.81-2.56-29.65-2.5-37.25-.1-5.1.63-5.74.62-7.87l-.43-8.56a23.93,23.93,0,0,0,.72-2.76,90.46,90.46,0,0,0-.64-9.7c0-11.2.87-5.26,1.62.45l0,6.32c.54,4.59.68,11.2,1.19,7.29a15.7,15.7,0,0,0-.7-4.2l.23-3.73c-.46-3.72-1.06-14-1.54-12.91.06-7.58-.78-16.26-.63-23-.15,4.62-.61-1.22-1,.16l.19,8.08c-.43-6.45-1.22-15.76-1.12-21.87.37.73.49,1,.68-2.13-.27,4.36-1.09-11.28-1.26-1.83.33,3.47.55,6.7.68,11.2-.6,3-1-4.09-1.56-8-.38-5-1-14.66-1.56-21.35,0-4.23.75-5.51,0-12.7-.15,4.61-.53,2.45-1-1.16l-.7-5.85a24.43,24.43,0,0,0-.67-4,87.14,87.14,0,0,0-.48-8.73,53.09,53.09,0,0,1-.25-8c.35,2.25.79,13,1.44,15.66.26.07.56-.82.89-.21a8.75,8.75,0,0,1,.53,2.49c.09.73.19,1.66.29,2.82s.18,2.08.27,3.42l-.12-4.2-.16-3.32a25.8,25.8,0,0,0-.32-3.15,19.35,19.35,0,0,1-.69-4.48l.29,5.1c-.15-1.1-.27-.46-.38-.14s-.21.35-.31-1.81c-.26-8.16-.31-13.44-.29-18.39L432.91,0c-.1.16-.29.47-.48.79.5-.57,0,.81-.74,2.58s-1.75,4-2.39,5.27c-2.49,4.42-2.46,3.74-2.05,2.25s1.16-3.75-.6-1.11c-2.24,5.48-6.19,13-4.8,11.06-2.29,4.55-1.14,1.81-2.86,4.89A120.78,120.78,0,0,1,413,39c.07-.64.26-1.74,3.43-7.74a49.9,49.9,0,0,1-4,6.53c-.82,1-1.05.82-.4-.95l6.36-11.94c2.64-6.38-5.88,11.13-6.05,10.34,1.38-2.86,2.68-5.31,3.82-7.46s2.14-4,3-5.92a86.29,86.29,0,0,0-4.91,9.24l-4.87,10.17c-3.45,6.62-2.7,3.93-3,3.91-4.95,11.72,7.5-12.65,2.9-1.72-1.46,4.28-6.64,14.34-10.12,21.51,3.73-5.78.57,1.14-2.92,8.57,4.84-9.54,2-2.07,7.23-13.49l.63,0c-2.43,4.78-5.51,10.32-7.93,15.09.36-1.07-.31,0,.39-1.62l-7,14.34.39-1.62c-4.49,8.74-10.33,19.31-12.78,24.63,2.09-4.25,4.44-7.65,2.35-3.14-1.07,2.67-3.18,7.46-5.25,11.43a26.25,26.25,0,0,0-2.08,3.25l-2.62,4.6c-1.34,2.3-2,3.14-.34-.78-1.66,3.56-2.47,5.37-3.09,6.8l-1.79,4.17c-.77-.86-1.9-2.17-3.82-4.46l3.84,4.71.54-1.14c.26,0-.15,1.55-.39,2.7-.23,0-.35.19.1,1a13.8,13.8,0,0,0,1.77-2.77c-.75,1.61-1.3,2.86-1.67,3.78a22.63,22.63,0,0,0-2.8-2.44c-.95-.84-2.52-2.56-6.59-7.72a15.81,15.81,0,0,1-.91-1.4c-.15-.28-.19-.42-.14-.45s.54.29,1.34,1.12c1.56,1.61,4,4.43,6.43,7.41a109.61,109.61,0,0,0-7.13-9.13c-.71-1.26.55,0,1.93,1.56a31.2,31.2,0,0,0,2.75,2.93c-2-2.57-2-2.49-2-2.35s0,.36-2-2.14c-7.42-8.57-3.72-6.25-10.66-14.57,1.47,1.85,3.92,5.29,2,3.19-8.92-11.5-5.38-6.07-12.08-14.25-3.06-5.19-.8-3.63-6.52-11.29l3.26,4.22a114.67,114.67,0,0,0-6.81-9.67c-6.36-7.65-12.3-14.55-18.27-21.51l-9-10.59L288.4,43.13l4.31,5.24c.33.53.24.51-.07.18-.16-.17-.37-.41-.62-.69l-.76-.87c-1.07-1.24-2.26-2.63-2.29-2.43l-2.39-3.65c-.37,0,1,2,2.18,3.69s2.18,3.24,1.33,2.58a16.12,16.12,0,0,0-1.43-1.9L290.6,48c-1.43-1.94-2.86-3.68-4.15-5.2S284,40,282.88,38.59a27,27,0,0,1-1.94,5.06c.89-3,1.41-5,1.7-6.37,1.31,1.31,1.12.48,1.51.43s1.47.86,5.92,6.41c-3-3.65-3.2-4.18-2.76-4s1.66,1.37,1.38.81c-3.39-4.57-1.71-1.5-5.42-6.59,0-.35,2,2,3.71,3.85s3,3.31,1.07.58c-.6.25-4.09-4.46-5.62-5.72L281.68,32c-.77,2,.19-1.85-.42-.46-.78,2.65-1.09,4.57-1.82,6.68l.31-2.33c-1.08,3.05-1.7,5-2.05,6.22a18.76,18.76,0,0,0-.57,2.58,27.21,27.21,0,0,1-.58,2.85c-.18.7-.44,1.65-.75,2.72s-.7,2.32-1.21,3.92c.19.26.56-.61,1.07-2.21s1.21-4.06,2.05-7c.45-.5.38.45.11,2s-.75,3.61-1.27,5.85c-1,4.43-2.11,9.08-1.36,8.72-3.54,12.19.53-3.35-2.93,6.9-2.47,5.48,1.55-7.85,1.84-10.64l-3.74,10.58c.15-3.87,2.5-10.44,2.22-12.6-2.49,8-2,7.08-4.1,15.27,4.72-12.87-1.16,5.88,2-1.32-2.09,6-1.71,4-4.4,12.82,1.5-5.65-.7-.46,1.55-7.85-3.57,11.91-2.38,8.76-6,20.67-.47,3.91,4.54-11.75.64,2.69-.94,3.09-1,2.41-.45.6-3.39,10.13,1.47-1.84-.16,4.68-1.28,4.49-2,6-1.63,4.12-1.68,6.81-.1,3.24-1.32,7.74l.7-2c-.39,2,2.15-3-.75,6.68-2.15,7-1.85,4.71-2.12,4.81a127.62,127.62,0,0,1-4.3,13.34c.25-.34.25.12-.26,1.78-2.63,9.35-2.19,5.17-3.35,8.59-.55,1.64-.93,2.85-1.19,3.74l-.34,1.23c-.09.36-.16.64-.2.87-.16.89,0,.79.26.74.42-.1.83,0-2.22,10l6.4-20.15c.1.81.48,1.33,1.6-2.37-.38-.5,1.06-6.7,2.88-12.4,1.07-1.48-4.07,15.55-.51,6.1-1.15,3.42-2.46,8.24-3.82,12.49.35-2.24-.72,1.18-1.69,4.2l-.9,2.83c-.29.9-.53,1.62-.69,2-.31.81-.27.33.38-2.39l-5.25,17.23-13.28-11.93-5.52-4.86-6.48-5.55a81.85,81.85,0,0,1,6.73,4.93l2.6,2.08,1.36,1.12,1.76,1.5c2.41,2.07,4.81,4.2,7.12,6.36l.8,1.19c5.88,5,3.44,2.65,0-.55s-7.85-7.36-6.69-6.72L229.24,158l-2.17-1.79q-2.17-1.83-4.39-3.8c-3-2.62-6-5.41-9-8.27-6.14-5.73-12.52-11.78-19.23-17.53,2.1,2.31-.64.12-1.42-.13,5.35,4.66,4.51,3.74,8.13,7.51-1-.33-4.09-3.27-6-4.52-1.72-.87,4,3.56,5.68,5.43a94.64,94.64,0,0,0-8-6.17c-2.52-2.77-2-2.6-3.84-4.84-12.38-11.17-11.57-9.26-21.49-18.33,5.5,5-2.27-2.7,3.67,2.81l-3.31-3c9.12,7.17,24,20.43,23.26,18.24-7.13-6.21-12.68-10.28-21.33-18l.51.16c-6.2-5.59-.1.3-1.71-.87C161.36,99,160.33,96,155,92.33l7,6.49c-5.7-4.44,1.53,1.47-.29.9-10-8.1-26.23-23.13-40.16-34.79,3.62,3.78,4.72,4.78,9.81,9.37-3-1.28-5-3.22-3.07-.32l6.19,5.59-.56.81c-1.71-1.5-3.36-3-4.81-4.46-1.26-.31-9.32-8.56-10.13-8.5l5.35,4.66c2.26,2.69-3.93-2.9-7.76-6.09,3.11,3.62,11.54,10.25,19.09,16.92-.31-.75,7.69,5.4.4-1.19.36-.22,4.87,3.52,7.76,6.09-1.64-1.19,4.94,5.84-2,0,6.81,5.45,2.89,2.56,10.28,8.85-1.2-.71,12.64,11.25,11.24,11.14,2.54,1.78.71-1,9.13,6.42-1.65-2.25-11-10.66-4.26-5.53l-4.34-3.35c-5.67-5.42,2,1-5.47-6,2.21,2,7,5.84,7.71,7.06-1.13-2.67,11.73,9.64,12.71,9.29,1.43,1.77,3.63,3.79,7.9,7.45-.8-.26,1.31,2-2.1-.68-2.62-2.48-4.66-4.11-7.45-7,.83,2.39,10.59,10,17.38,16.37-.91-.94-1.11-1.28.93.31,4.13,3.93,13.37,12.46,10.29,10.5l22,19.4c-.72-.26-3.54-3-5-4.13l18.08,16.16c2.5,2.49.77,1.08-1.94-1.21s-6.36-5.42-7.54-6.21L245.24,179l.75-2.45-.58,3-.28-.18.3.25c.79-3,2.9-10.18,5.08-17.24l1.64-5.23.8-2.5.47-1.38a31.72,31.72,0,0,1,1.46-3.63c3.53-12.18,2.26-12.33,7.82-28.58.41.79-2.63,9.35-3.4,13.27,1.19-3.14,3.75-13,4.83-14.52,3.26-11.88,1.8-10.91,3-16.8,2.9-9.64.83-.91,1.12-1.24C269.11,99,269.43,94,271,91.66c1-4.78,1.27-7.56-1-.72,1.57-5.12,3.51-12.46,3.64-13.84-.39,4.41,2.14-5.74,3-6.09,1.26-3.85,3.26-10,5.1-16.21l.68-2.31.16-.54,0-.19.1-.39c.13-.52.24-1.05.35-1.59a32.9,32.9,0,0,0,.48-3.41q.12,1.32.32,2.39l.5-1.89.65.77c.4.8.42,1,.29,1a2.29,2.29,0,0,1-.73-.62c-.22,1-.5,1.92-.62,2.42l.69-2.07,6.15,7.85c-1.9-2.79-.51-1.33-1.25-2.79,2.76,2.89,5.88,7.39,8.5,10.57.42.94-.07.67-2.1-1.83l5,6.2c-.88-.12,1.5,2.94-3.64-3L302,71.05c4.84,6.5-.63,0-2-1.42l7.77,10.18c3.09,3.42-1.17-2.4,4.39,4.47,6.81,9.67,16.22,21.44,24.32,32.15l-5.34-7.82c4.84,6.49,4.63,4.6,6.49,6.3l7.51,9.82,3.72,4.91,3.81,5.14-1.35-1.59-.3-.35-.18-.19-.33-.34a13.19,13.19,0,0,0-1-.95c-.5-.41-.67-.39-.58,0a10.28,10.28,0,0,0,1,2l.11.18.22.32.48.7,1.08,1.54,2.56,3.58c6.12,7.93,9.59,12.21,11.76,14.71,3.06-6.78,3.16-8.16,7.28-16.82-1.08,2.82-1.13,3.33-.53,2.38s1.83-3.3,3.18-5.93l1.88-3.68,1-2c.62-1.14,1-1.82,1-1.41,8.66-17.23,17-34.74,26-52.51-.33.27-3.08,5.28-1.67,2.08,3.13-6.62,5.15-9.51,5.82-10.29,4.17-8.49,6.28-13.54,7.37-16.49-1.75,3.72-2.07,4-2,3.15a74.31,74.31,0,0,1,3.86-7.1c.43-.71.83-1.41,1.35-2.45l.13-.27.06-.14.13-.33c.09-.25.19-.55.31-.95.38,0,.08.75-.18,1.44,0,0-.36.81-.61,1.36s-.51,1.12-.7,1.58c-.39.92-.57,1.51-.33,1.39l1.35-2.67.62-1.25.13-.29c.16-.37.3-.74.44-1.13l.92-2.75c.21.51-.64,1.49,0,1.09L425.57,34c.23,1.6.45,3.15.61,4.51q-.23,1-.47,1.78a15,15,0,0,0,.57,3.66,3,3,0,0,1-.06.33,4.12,4.12,0,0,1,0,.49c0,.18-.08.07-.13-.25,0-.06,0-.21,0-.24l0-.1-.05-.25c0-.18-.07-.39-.09-.61,0,.29,0,.59,0,.9l.17,3.07.42,6.49c.29,4.18.57,7.9.7,10.27-.37-.74-.26-4.72-.58-6.09.31,10.44,2,23.57,1.55,30.45-.13-.88-.19-1.9-.23-2.84.63,15.46,1.6,28.92,2.38,45.71,0,15.42,1.07,4.93,1.64,20.09-1.48.17.79,20.63.8,27l.13-2a169.75,169.75,0,0,1,.64,23l.44,11.16.24,5,.17,2.48-3.52.75c-2.66.51-5.17,1-7.44,1.51l2.17-.67c-9.16,1.89-15,2.35-24.16,4.24.23-.15,3.65-.89.06-.42-44.53,6.76-89.7,15.07-134,22.1l-94.63,15.08L163.87,221l-10-44.26c-6.67-29.2-13.25-57.56-19.47-83.68C134.37,93,119.58,55.23,118.45,61.67Z"/><path class="cls-3" d="M261.9,98.68l.39-1.15C262.13,98,262,98.32,261.9,98.68Z"/><path class="cls-3" d="M364,139.94l-1.83-2.33C362.76,138.41,363.37,139.19,364,139.94Z"/><path class="cls-3" d="M433.49,31.9l-.24-4.17C433.34,29.56,433.42,30.86,433.49,31.9Z"/><path class="cls-3" d="M369.07,238.73c1.42.19-5.47,2.09.61,1.48,21.11-3.39,8.72-3.1,30.46-6.52L389,235c.71.65-7,2.31-15.41,3.75l-2.67-.12c1.42-.39,2.95-.78,4.54-1.15C372.28,237.92,373,238.25,369.07,238.73Z"/><path class="cls-3" d="M376.28,237.36l-.52,0-.27.06Z"/></g></g><g id="Layer_3" data-name="Layer 3"><text class="cls-4" transform="translate(0 223.6)">RAISING A WILD ONE</text></g></svg>