<?xml version="1.0" encoding="iso-8859-1"?>
<!-- Generator: Adobe Illustrator 19.0.0, SVG Export Plug-In . SVG Version: 6.00 Build 0)  -->
<svg version="1.1" id="Layer_1" xmlns="http://www.w3.org/2000/svg" xmlns:xlink="http://www.w3.org/1999/xlink" x="0px" y="0px"
	 viewBox="0 0 512 512" style="enable-background:new 0 0 512 512;" xml:space="preserve">
<g>
	<g>
		<path d="M511.987,164.436c-0.013-0.405-0.039-0.809-0.065-1.214c-0.026-0.261-0.039-0.522-0.078-0.77
			c-0.039-0.366-0.091-0.731-0.157-1.097c-0.052-0.3-0.117-0.601-0.183-0.888c-0.065-0.3-0.144-0.601-0.235-0.901
			c-0.091-0.352-0.196-0.705-0.313-1.044c-0.078-0.248-0.17-0.483-0.261-0.731c-0.144-0.379-0.3-0.757-0.47-1.123
			c-0.052-0.104-0.091-0.222-0.131-0.326c-0.065-0.117-0.131-0.235-0.196-0.352c-0.183-0.352-0.366-0.692-0.561-1.031
			c-0.144-0.248-0.287-0.483-0.444-0.731c-0.17-0.274-0.366-0.548-0.548-0.809c-0.196-0.274-0.405-0.548-0.614-0.809
			c-0.17-0.209-0.339-0.418-0.522-0.627c-0.248-0.287-0.496-0.561-0.744-0.822c-0.183-0.183-0.366-0.366-0.548-0.535
			c-0.274-0.261-0.548-0.509-0.836-0.757c-0.196-0.17-0.405-0.339-0.627-0.496c-0.274-0.222-0.548-0.431-0.836-0.627
			c-0.248-0.183-0.509-0.352-0.77-0.509c-0.261-0.17-0.509-0.326-0.77-0.47c-0.313-0.183-0.627-0.339-0.953-0.496
			c-0.235-0.117-0.457-0.235-0.692-0.339c-0.352-0.157-0.718-0.3-1.07-0.431c-0.235-0.091-0.457-0.183-0.692-0.261
			c-0.352-0.117-0.718-0.222-1.084-0.326c-0.261-0.065-0.509-0.131-0.77-0.196c-0.339-0.078-0.679-0.144-1.018-0.196
			c-0.313-0.065-0.627-0.104-0.953-0.144c-0.287-0.039-0.574-0.065-0.875-0.091c-0.379-0.039-0.757-0.052-1.149-0.065
			c-0.131,0-0.261-0.013-0.405-0.013c-0.117,0-0.235,0.013-0.352,0.013c-0.405,0.013-0.796,0.026-1.201,0.065
			c-0.261,0.013-0.535,0.039-0.796,0.078c-0.352,0.039-0.705,0.091-1.057,0.157c-0.313,0.052-0.627,0.117-0.927,0.183
			c-0.287,0.065-0.587,0.144-0.875,0.222c-0.352,0.104-0.705,0.209-1.057,0.326c-0.248,0.078-0.483,0.17-0.731,0.261
			c-0.379,0.144-0.757,0.3-1.123,0.47c-0.104,0.052-0.209,0.078-0.326,0.131L338.87,216.435
			c-4.247-13.108-16.567-22.616-31.072-22.616H206.266c-14.483,0-26.787,9.479-31.052,22.559L30.222,147.113
			C20.836,142.635,9.7,146.29,4.7,155.246c-2.924,3.433-4.7,7.859-4.7,12.715v175.523c0,4.399,1.475,8.46,3.93,11.723
			c0.065,0.157,0.117,0.3,0.183,0.444c3.355,7.037,10.379,11.149,17.676,11.149c2.833,0,5.705-0.614,8.433-1.919l143.755-68.674
			c2.376,15.685,15.949,27.746,32.287,27.746h101.532c16.36,0,29.947-12.093,32.295-27.81l143.878,68.738
			c2.729,1.306,5.601,1.919,8.433,1.919c7.311,0,14.321-4.112,17.689-11.149c1.828-3.851,2.285-7.99,1.58-11.893
			c0.209-1.123,0.326-2.272,0.326-3.46v-175.51H512C512,164.671,511.987,164.554,511.987,164.436z"/>
	</g>
</g>
<g>
</g>
<g>
</g>
<g>
</g>
<g>
</g>
<g>
</g>
<g>
</g>
<g>
</g>
<g>
</g>
<g>
</g>
<g>
</g>
<g>
</g>
<g>
</g>
<g>
</g>
<g>
</g>
<g>
</g>
</svg>
