<?xml version="1.0"?>
<svg xmlns="http://www.w3.org/2000/svg" xmlns:xlink="http://www.w3.org/1999/xlink" version="1.1" id="Capa_1" x="0px" y="0px" viewBox="0 0 422.43 422.43" style="enable-background:new 0 0 422.43 422.43;" xml:space="preserve" width="512px" height="512px" class=""><g transform="matrix(1.14947 0 0 1.14947 -31.5712 -48.8133)"><g>
	<path style="fill:#C61C0F" d="M50.422,266.434l18.948,98.127c2.828-5.331,5.505-11.301,7.923-17.992   c-8.845-33.812-16.109-60.925-21.184-79.664C54.132,266.819,52.243,266.655,50.422,266.434z" data-original="#A3BFD9" class="" data-old_color="#A3BFD9"/>
	<path style="fill:#C61C0F" d="M81.698,75.974c-24.704,0-45.12-14.911-47.919-34.061H21.85   c2.767,25.241,28.545,45.088,59.849,45.088c31.303,0,57.08-19.847,59.847-45.088h-11.929   C126.816,61.063,106.401,75.974,81.698,75.974z" data-original="#759DBA" class="" data-old_color="#759DBA"/>
	<path style="fill:#C61C0F" d="M56.473,41.913h-13.58c2.887,14.172,19.188,25.061,38.805,25.061   c19.615,0,35.916-10.889,38.803-25.061h-13.573c-2.532,9.479-12.88,16.6-25.231,16.6C69.347,58.513,59.003,51.393,56.473,41.913z" data-original="#A3BFD9" class="" data-old_color="#A3BFD9"/>
	<path style="fill:#C61C0F" d="M102.738,93.221c-9.153,81.678-38.656,123.279-52.609,138.797c0.274-0.02,0.515-0.039,0.721-0.06   c41.731-25.831,64.301-77.031,75.894-115.569c4.865-16.172,8.249-31.488,10.579-44.273   C128.782,81.932,116.728,89.42,102.738,93.221z" data-original="#A3BFD9" class="" data-old_color="#A3BFD9"/>
	<path style="fill:#C61C0F" d="M185.985,41.913H172.41c2.887,14.172,19.189,25.061,38.805,25.061   c19.615,0,35.916-10.889,38.803-25.061h-13.573c-2.532,9.479-12.88,16.6-25.231,16.6C198.864,58.513,188.516,51.393,185.985,41.913   z" data-original="#A3BFD9" class="" data-old_color="#A3BFD9"/>
	<path style="fill:#C61C0F" d="M97.261,41.913H66.166c2.539,4.403,8.612,7.6,15.531,7.6C88.62,49.513,94.718,46.319,97.261,41.913z   " data-original="#759DBA" class="" data-old_color="#759DBA"/>
	<path style="fill:#C61C0F" d="M211.215,75.974c-24.704,0-45.12-14.911-47.919-34.061h-11.929   c2.767,25.241,28.545,45.088,59.849,45.088c31.303,0,57.08-19.847,59.847-45.088h-11.929   C256.332,61.063,235.918,75.974,211.215,75.974z" data-original="#759DBA" class="" data-old_color="#759DBA"/>
	<path style="fill:#C61C0F" d="M36.709,263.25l8.33,132.057c5.523-4.579,11.577-10.819,17.384-19.255L40.896,264.567   C39.438,264.164,38.038,263.727,36.709,263.25z" data-original="#759DBA" class="" data-old_color="#759DBA"/>
	<path style="fill:#C61C0F" d="M21.095,254.428v154.174c3.698-1.133,9.138-3.247,15.319-7.076l-8.998-142.642   C24.981,257.434,22.876,255.915,21.095,254.428z" data-original="#A3BFD9" class="" data-old_color="#A3BFD9"/>
	<path style="fill:#C61C0F" d="M25.622,223.282c6.249-13.715,22.621-56.213,27.022-132.725   c-11.284-4.456-20.916-11.421-27.902-20.046c6.225,70.643,1.449,124.533-1.773,149.476   C23.801,221.204,24.691,222.293,25.622,223.282z" data-original="#A3BFD9" class="" data-old_color="#A3BFD9"/>
	<path style="fill:#C61C0F" d="M61.45,200.347c11.334-19.864,25.864-54.02,32.006-105.204c-3.823,0.559-7.75,0.858-11.758,0.858   c-7.031,0-13.814-0.904-20.209-2.567c-4.898,80.257-22.413,122.795-28.464,135.346c1.886,0.945,3.787,1.631,5.621,2.124   C42.232,227.496,51.473,217.833,61.45,200.347z" data-original="#759DBA" class="" data-old_color="#759DBA"/>
	<path style="fill:#C61C0F" d="M21.095,232.757v8.674c2.293,3.308,11.531,14.473,32.524,16.3   c-2.095-7.693-3.642-13.321-4.561-16.65c-0.419,0.013-0.855,0.021-1.325,0.021c-6.447,0-17.459-1.377-26.455-9.444   C21.213,232.053,21.151,232.426,21.095,232.757z" data-original="#759DBA" class="" data-old_color="#759DBA"/>
	<path style="fill:#C61C0F" d="M399.455,219.966c-3.225-24.948-7.997-78.811-1.773-149.44   c-6.989,8.619-16.619,15.579-27.899,20.032c4.413,76.742,20.767,119.077,27.015,132.733   C397.731,222.297,398.62,221.191,399.455,219.966z" data-original="#A3BFD9" class="" data-old_color="#A3BFD9"/>
	<path style="fill:#C61C0F" d="M386.016,401.497c6.206,3.855,11.633,5.981,15.318,7.112V254.442   c-1.785,1.486-3.883,3.011-6.323,4.462L386.016,401.497z" data-original="#A3BFD9" class="" data-old_color="#A3BFD9"/>
	<path style="fill:#C61C0F" d="M360.003,376.063c5.667,8.228,11.657,14.484,17.386,19.218l8.328-132.018   c-1.334,0.479-2.727,0.929-4.191,1.334L360.003,376.063z" data-original="#759DBA" class="" data-old_color="#759DBA"/>
	<path style="fill:#C61C0F" d="M374.696,241.102c-0.47,0-0.906-0.009-1.325-0.021c-0.919,3.328-2.466,8.955-4.56,16.646   c20.985-1.827,30.226-12.988,32.522-16.297v-8.672c-0.057-0.336-0.12-0.712-0.185-1.113   C392.153,239.711,381.144,241.102,374.696,241.102z" data-original="#759DBA" class="" data-old_color="#759DBA"/>
	<rect x="9" y="12.639" style="fill:#0C0B0A" width="404.43" height="20.274" data-original="#BBA795" class="" data-old_color="#26221E"/>
	<path style="fill:#C61C0F" d="M366.317,266.912c-5.075,18.739-12.338,45.849-21.182,79.658c2.413,6.681,5.086,12.643,7.921,17.996   l18.944-98.11C370.185,266.674,368.288,266.827,366.317,266.912z" data-original="#A3BFD9" class="" data-old_color="#A3BFD9"/>
	<path style="fill:#C61C0F" d="M356.293,41.913h-31.125c2.542,4.405,8.641,7.6,15.562,7.6   C347.652,49.513,353.75,46.319,356.293,41.913z" data-original="#759DBA" class="" data-old_color="#759DBA"/>
	<path style="fill:#C61C0F" d="M226.777,41.913h-31.125c2.542,4.405,8.64,7.6,15.562,7.6   C218.136,49.513,224.235,46.319,226.777,41.913z" data-original="#759DBA" class="" data-old_color="#759DBA"/>
	<path style="fill:#C61C0F" d="M372.307,232.025c-13.95-15.511-43.461-57.112-52.616-138.803   c-13.987-3.8-26.04-11.286-34.581-21.101c2.339,12.841,5.738,28.223,10.627,44.444c11.596,38.476,34.159,89.596,75.846,115.396   C371.793,231.983,372.029,232.004,372.307,232.025z" data-original="#A3BFD9" class="" data-old_color="#A3BFD9"/>
	<path style="fill:#C61C0F" d="M315.5,41.913h-13.574c2.887,14.172,19.188,25.061,38.803,25.061   c19.617,0,35.919-10.889,38.806-25.061H365.96c-2.531,9.479-12.879,16.6-25.23,16.6C328.38,58.513,318.032,51.393,315.5,41.913z" data-original="#A3BFD9" class="" data-old_color="#A3BFD9"/>
	<path style="fill:#C61C0F" d="M280.883,41.913c2.767,25.241,28.544,45.088,59.847,45.088c31.302,0,57.062-19.849,59.83-45.088   h-11.911c-2.799,19.15-23.215,34.061-47.919,34.061c-24.703,0-45.118-14.911-47.917-34.061H280.883z" data-original="#759DBA" class="" data-old_color="#759DBA"/>
	<path style="fill:#C61C0F" d="M340.729,96.001c-4.008,0-7.934-0.3-11.757-0.858c10.718,89.452,46.912,128.262,54.837,135.788   c1.828-0.493,3.723-1.182,5.604-2.13c-6.042-12.521-23.576-55.061-28.477-135.366C354.542,95.097,347.76,96.001,340.729,96.001z" data-original="#759DBA" class="" data-old_color="#759DBA"/>
	<path style="fill:#060101" d="M417.93,3.639H4.5c-2.485,0-4.5,2.015-4.5,4.5v29.274c0,2.485,2.015,4.5,4.5,4.5h8.13   c12.866,102.058-0.535,190.489-0.535,190.489V414.29c0,1.288,0.552,2.515,1.516,3.368c0.828,0.733,1.891,1.132,2.984,1.132   c0.18,0,0.362-0.011,0.543-0.033c1.891-0.229,46.567-6.369,69.105-70.492c0.297-0.847,0.335-1.763,0.108-2.631   c-15.099-57.749-25.674-96.287-28.716-107.302c33.989-21.988,60.824-63.161,77.727-119.351   c6.689-22.237,10.628-42.644,12.893-57.452c10.864,20.308,34.992,34.472,62.96,34.472c27.969,0,52.096-14.166,62.959-34.475   c2.265,14.814,6.202,35.218,12.891,57.455c16.904,56.19,43.738,97.362,77.728,119.351c-3.043,11.015-13.618,49.553-28.716,107.302   c-0.227,0.868-0.189,1.784,0.108,2.631c22.537,64.123,67.215,70.263,69.105,70.492c0.182,0.022,0.363,0.033,0.543,0.033   c1.093,0,2.156-0.398,2.984-1.132c0.964-0.854,1.516-2.08,1.516-3.368V232.403h-0.017c-0.001-0.332-13.394-88.395-0.522-190.489   h8.135c2.485,0,4.5-2.015,4.5-4.5V8.139C422.43,5.654,420.415,3.639,417.93,3.639z M21.095,408.602V254.428   c1.782,1.486,3.886,3.006,6.321,4.455l8.998,142.642C30.232,405.355,24.793,407.469,21.095,408.602z M24.742,70.511   c6.987,8.625,16.619,15.59,27.902,20.046c-4.401,76.512-20.774,119.01-27.022,132.725c-0.931-0.988-1.822-2.078-2.653-3.295   C26.191,195.044,30.967,141.154,24.742,70.511z M61.489,93.434c6.395,1.663,13.178,2.567,20.209,2.567   c4.008,0,7.935-0.3,11.758-0.858c-6.142,51.184-20.672,85.34-32.006,105.204c-9.977,17.486-19.218,27.149-22.804,30.557   c-1.833-0.493-3.734-1.179-5.621-2.124C39.076,216.229,56.591,173.691,61.489,93.434z M47.732,241.102   c0.47,0,0.906-0.009,1.325-0.021c0.919,3.329,2.466,8.957,4.561,16.65c-20.993-1.827-30.231-12.992-32.524-16.3v-8.674   c0.056-0.331,0.118-0.704,0.183-1.1C30.273,239.725,41.285,241.102,47.732,241.102z M45.039,395.306l-8.33-132.057   c1.329,0.477,2.729,0.915,4.187,1.317l21.528,111.484C56.616,384.487,50.562,390.727,45.039,395.306z M77.293,346.569   c-2.418,6.691-5.095,12.661-7.923,17.992l-18.948-98.127c1.821,0.221,3.71,0.385,5.688,0.471   C61.185,285.644,68.448,312.756,77.293,346.569z M126.744,116.389C115.15,154.927,92.58,206.127,50.85,231.958   c-0.206,0.021-0.447,0.04-0.721,0.06c13.953-15.518,43.456-57.119,52.609-138.797c13.99-3.801,26.044-11.289,34.585-21.105   C134.993,84.901,131.609,100.217,126.744,116.389z M81.698,87.001c-31.304,0-57.082-19.847-59.849-45.088h11.929   c2.8,19.15,23.215,34.061,47.919,34.061c24.703,0,45.118-14.911,47.918-34.061h11.929C138.778,67.155,113.001,87.001,81.698,87.001   z M81.697,58.513c12.351,0,22.699-7.12,25.231-16.6h13.573c-2.887,14.172-19.188,25.061-38.803,25.061   c-19.616,0-35.918-10.889-38.805-25.061h13.58C59.003,51.393,69.347,58.513,81.697,58.513z M66.166,41.913h31.094   c-2.542,4.405-8.641,7.6-15.563,7.6C74.779,49.513,68.705,46.317,66.166,41.913z M211.215,87.001   c-31.304,0-57.082-19.847-59.849-45.088h11.929c2.8,19.15,23.215,34.061,47.919,34.061c24.703,0,45.118-14.911,47.917-34.061   h11.929C268.295,67.155,242.518,87.001,211.215,87.001z M211.214,58.513c12.351,0,22.699-7.12,25.231-16.6h13.573   c-2.887,14.172-19.188,25.061-38.803,25.061c-19.616,0-35.918-10.889-38.805-25.061h13.575   C188.516,51.393,198.864,58.513,211.214,58.513z M195.652,41.913h31.125c-2.542,4.405-8.641,7.6-15.563,7.6   C204.292,49.513,198.194,46.319,195.652,41.913z M340.73,58.513c12.351,0,22.699-7.12,25.23-16.6h13.575   c-2.887,14.172-19.189,25.061-38.806,25.061c-19.615,0-35.916-10.889-38.803-25.061H315.5   C318.032,51.393,328.38,58.513,340.73,58.513z M325.168,41.913h31.125c-2.543,4.405-8.641,7.6-15.562,7.6   C333.809,49.513,327.71,46.319,325.168,41.913z M340.729,75.974c24.705,0,45.12-14.911,47.919-34.061h11.911   c-2.768,25.239-28.528,45.088-59.83,45.088c-31.303,0-57.08-19.847-59.847-45.088h11.929   C295.612,61.063,316.026,75.974,340.729,75.974z M369.783,90.558c11.28-4.453,20.91-11.413,27.899-20.032   c-6.225,70.63-1.452,124.492,1.773,149.44c-0.835,1.225-1.724,2.331-2.657,3.325C390.55,209.635,374.196,167.3,369.783,90.558z    M389.414,228.801c-1.881,0.948-3.776,1.637-5.604,2.13c-7.925-7.526-44.119-46.336-54.837-135.788   c3.823,0.559,7.749,0.858,11.757,0.858c7.03,0,13.813-0.904,20.208-2.566C365.838,173.741,383.372,216.28,389.414,228.801z    M295.737,116.566c-4.889-16.222-8.288-31.603-10.627-44.444c8.54,9.814,20.593,17.301,34.581,21.101   c9.154,81.69,38.666,123.292,52.616,138.803c-0.277-0.021-0.513-0.042-0.723-0.064   C329.896,206.162,307.333,155.042,295.737,116.566z M345.135,346.57c8.844-33.81,16.107-60.919,21.182-79.658   c1.971-0.085,3.868-0.237,5.684-0.456l-18.944,98.11C350.222,359.212,347.548,353.25,345.135,346.57z M377.39,395.281   c-5.729-4.733-11.719-10.99-17.386-19.218l21.523-111.467c1.464-0.405,2.857-0.854,4.191-1.334L377.39,395.281z M401.334,408.609   c-3.685-1.131-9.111-3.257-15.318-7.112l8.995-142.593c2.439-1.451,4.538-2.976,6.323-4.462V408.609z M401.334,241.43   c-2.297,3.309-11.537,14.47-32.522,16.297c2.094-7.691,3.641-13.318,4.56-16.646c0.419,0.013,0.855,0.021,1.325,0.021   c6.448,0,17.457-1.391,26.452-9.457c0.066,0.401,0.129,0.777,0.185,1.113V241.43z M413.43,32.913H9V12.639h404.43V32.913z" data-original="#7C5F53" class="active-path" data-old_color="#0A0201"/>
</g></g> </svg>
